<?xml version="1.0" encoding="utf-8"?>
<!-- Generator: Adobe Illustrator 21.1.0, SVG Export Plug-In . SVG Version: 6.00 Build 0)  -->
<svg version="1.1" id="Layer_1" xmlns="http://www.w3.org/2000/svg" xmlns:xlink="http://www.w3.org/1999/xlink" x="0px" y="0px"
	 viewBox="0 0 386 127.2" style="enable-background:new 0 0 386 127.2;" xml:space="preserve">
<style type="text/css">
	.st0{clip-path:url(#SVGID_2_);}
	.st1{clip-path:url(#SVGID_4_);}
	.st2{clip-path:url(#SVGID_6_);fill:#323638;}
	.st3{clip-path:url(#SVGID_8_);}
	.st4{clip-path:url(#SVGID_10_);fill:#59BC64;}
	.st5{fill-rule:evenodd;clip-rule:evenodd;fill:none;}
</style>
<g>
	<g>
		<g>
			<defs>
				<rect id="SVGID_1_" x="6.5" y="7.1" width="373" height="113"/>
			</defs>
			<clipPath id="SVGID_2_">
				<use xlink:href="#SVGID_1_"  style="overflow:visible;"/>
			</clipPath>
			<g class="st0">
				<defs>
					<path id="SVGID_3_" d="M91.5,50.7h26.9v6.7H98.8v11h18.5v7H98.8v17.3h-7.3V50.7z M123.3,64.1h7v4.6c0.6-1.5,1.8-3,3.3-4
						c1.5-0.9,3.3-1.5,4.8-1.2h1.2l1.2,0.3v7c-0.6-0.3-1.2-0.3-1.8-0.3h-1.8c-1.5,0-2.7,0.3-3.9,0.9c-0.9,0.6-1.8,1.2-2.4,2.1
						c-0.6,0.6-0.9,1.5-0.9,2.4c0,0.6-0.3,1.2-0.3,1.8V93h-7V64.1H123.3z M144.8,78.4c0-2.1,0.3-4.3,1.2-6.1
						c0.9-1.8,1.8-3.3,3.3-4.6c1.5-1.2,3-2.4,4.8-3c3.9-1.5,8.2-1.5,12.1,0c1.8,0.6,3.6,1.8,4.8,3c1.5,1.2,2.4,3,3.3,4.6
						c1.5,4,1.5,8.5,0,12.5c-1.5,3.7-4.5,6.4-8.2,7.6c-3.9,1.5-8.2,1.5-12.1,0c-1.8-0.6-3.6-1.8-4.8-3c-1.5-1.2-2.4-3-3.3-4.6
						C145.1,82.6,144.8,80.5,144.8,78.4z M151.7,78.4c0,1.2,0.3,2.1,0.6,3.4c0.3,0.9,0.9,1.8,1.5,2.7c3,3.4,8.5,3.7,11.8,0.3
						c0.3,0,0.3-0.3,0.3-0.3c0.6-0.9,1.2-1.8,1.5-2.7c0.6-2.1,0.6-4.3,0-6.4c-0.3-0.9-0.9-1.8-1.5-2.7c-3-3.4-8.5-3.7-11.8-0.3
						c-0.3,0-0.3,0.3-0.3,0.3c-0.6,0.9-1.2,1.8-1.5,2.7C152,76.3,151.7,77.2,151.7,78.4z M179.8,64.1h6.7v4.6c0.6-1.5,1.8-2.7,3-3.7
						c1.5-1.2,3.6-1.8,5.4-1.5c1.8,0,3.3,0.3,4.8,0.9c1.2,0.6,2.4,1.5,3.3,2.4c0.9,0.9,1.5,2.1,1.8,3.4c0.3,1.5,0.6,2.7,0.6,4.3v18
						h-7v-17c0-0.9-0.3-1.8-0.6-2.7c-0.3-0.9-0.9-1.5-1.5-2.1c-0.9-0.6-1.8-0.9-3-0.9c-0.9,0-2.1,0.3-3,0.6
						c-0.9,0.3-1.5,0.9-2.1,1.5c-0.6,0.6-0.9,1.5-1.2,2.4c-0.3,0.9-0.3,1.8-0.3,2.7v15.5h-7V64.1z M209.5,70.2v-6.1h5.7v-8.2h7.3
						v8.2h7.9v6.1h-7.9v12.5c0,1.2,0.3,2.4,0.9,3.3c0.9,0.9,1.8,1.5,3,1.2c0.6,0,1.5,0,2.1-0.3c0.6,0,1.2-0.3,1.8-0.6v6.1
						c-0.9,0.3-1.8,0.6-2.7,0.6s-1.8,0.3-2.7,0.3c-1.5,0-3-0.3-4.5-0.6c-1.2-0.3-2.1-0.9-2.7-1.8c-0.6-0.9-1.2-1.8-1.5-3
						c-0.3-1.5-0.3-3-0.3-4.3V70.5h-6.4V70.2z M236.7,64.1h6.7v4.3c0.9-1.5,2.4-3,4.2-3.6c1.8-0.9,3.6-1.2,5.4-1.2
						c2.1,0,3.9,0.3,5.7,1.2c1.8,0.6,3.3,1.8,4.5,3.3s2.1,3,2.7,4.9c0.6,1.8,0.9,4,0.9,5.8c0,2.1-0.3,4-0.9,5.8
						c-0.6,1.8-1.5,3.4-2.7,4.6c-1.2,1.2-2.7,2.4-4.2,3c-1.8,0.9-3.6,1.2-5.4,1.2c-1.2,0-2.4,0-3.6-0.3l-2.7-0.9
						c-0.6-0.3-1.5-0.9-2.1-1.5c-0.6-0.3-0.9-0.9-1.2-1.5v17h-7.3V64.1z M260,78.4c0-1.2-0.3-2.1-0.6-3.3c-0.3-0.9-0.9-1.8-1.5-2.7
						c-3-3.3-8.5-3.6-11.8-0.3c-0.3,0-0.3,0.3-0.3,0.3c-0.6,0.9-1.2,1.8-1.5,2.7c-0.6,2.1-0.6,4.3,0,6.4c0.3,0.9,0.9,1.8,1.5,2.7
						c3,3.3,8.5,3.7,11.8,0.3c0.3,0,0.3-0.3,0.3-0.3c0.6-0.9,1.2-1.8,1.5-2.7C260,80.5,260,79.3,260,78.4z M271.8,78.4
						c0-2.1,0.3-4.3,1.2-6.1c0.9-1.8,1.8-3.3,3.3-4.6c1.5-1.2,3-2.4,4.8-3c3.9-1.5,8.2-1.5,12.1,0c1.8,0.6,3.6,1.8,4.8,3
						c1.5,1.2,2.4,3,3.3,4.6c1.5,4,1.5,8.5,0,12.5c-1.5,3.7-4.5,6.4-8.2,7.6c-3.9,1.5-8.2,1.5-12.1,0c-3.6-1.2-6.7-4.3-8.2-7.9
						C272.4,82.6,271.8,80.5,271.8,78.4z M279.1,78.4c0,1.2,0.3,2.1,0.6,3.4c0.3,0.9,0.9,1.8,1.5,2.7c3,3.4,8.5,3.7,11.8,0.3
						c0.3,0,0.3-0.3,0.3-0.3c0.6-0.9,1.2-1.8,1.5-2.7c0.6-2.1,0.6-4.3,0-6.4c-0.3-0.9-0.9-1.8-1.5-2.7c-3-3.4-8.5-3.7-11.8-0.3
						c-0.3,0-0.3,0.3-0.3,0.3c-0.6,0.9-1.2,1.8-1.5,2.7C279.1,76.3,279.1,77.2,279.1,78.4z M305.7,54.3c0-1.2,0.6-2.1,1.2-3
						c0.9-0.9,2.1-1.2,3.3-1.2s2.4,0.3,3.3,1.2c1.8,1.5,1.8,4.3,0.3,5.8l-0.3,0.3c-0.9,0.9-2.1,1.2-3.3,1.2s-2.4-0.3-3.3-1.2
						C306.3,56.8,305.7,55.6,305.7,54.3z M306.6,92.4h7V64.1h-7V92.4z M320.8,64.1h6.7v4.6c0.6-1.5,1.8-2.7,3-3.7
						c1.5-1.2,3.6-1.8,5.4-1.5c1.8,0,3.3,0.3,4.8,0.9c1.2,0.6,2.4,1.5,3.3,2.4c0.9,0.9,1.5,2.1,1.8,3.7c0.3,1.5,0.6,2.7,0.6,4.3v18
						h-7V75.3c0-0.9-0.3-1.8-0.6-2.7c-0.3-0.9-0.9-1.5-1.5-2.1c-0.9-0.6-1.8-0.9-3-0.9c-0.9,0-2.1,0.3-3,0.6
						c-0.9,0.3-1.5,0.9-2.1,1.5c-0.6,0.6-0.9,1.5-1.2,2.4c-0.3,0.9-0.3,1.8-0.3,2.7v15.5h-7V64.1z M349.2,70.2v-6.1h5.7v-8.2h7v8.2
						h7.9v6.1H362v12.5c0,1.2,0.3,2.4,0.9,3.3c0.9,0.9,2.1,1.5,3,1.2c0.6,0,1.5,0,2.1-0.3c0.6,0,1.2-0.3,1.8-0.6v6.1
						c-0.9,0.3-1.8,0.6-2.7,0.6s-1.8,0.3-2.7,0.3c-1.5,0-3-0.3-4.5-0.6c-1.2-0.3-2.1-0.9-2.7-1.8c-0.6-0.9-1.2-2.1-1.5-3
						c-0.3-1.5-0.3-3-0.3-4.3V70.5h-6.1V70.2z M371.6,58.9c0-0.6,0-0.9,0.3-1.2c0.3-0.3,0.3-0.9,0.6-1.2c0.3-0.3,0.6-0.6,1.2-0.6
						c0.9-0.3,1.8-0.3,2.7,0c0.3,0.3,0.9,0.3,1.2,0.6c0.3,0.3,0.6,0.6,0.6,1.2c0.3,0.9,0.3,1.8,0,2.7c-0.3,0.3-0.3,0.9-0.6,1.2
						c-0.3,0.3-0.6,0.6-1.2,0.6c-0.9,0.3-1.8,0.3-2.7,0c-0.3-0.3-0.9-0.3-1.2-0.6s-0.6-0.6-0.6-1.2
						C371.6,59.8,371.6,59.5,371.6,58.9z M372.2,58.9c0,0.3,0,0.6,0.3,0.9c0,0.3,0.3,0.6,0.6,0.9c0.3,0.3,0.6,0.3,0.9,0.6
						c0.6,0.3,1.2,0.3,1.8,0c0.3,0,0.6-0.3,0.9-0.6c0.6-0.9,0.9-1.8,0.6-2.7c0-0.3-0.3-0.6-0.6-0.9c-0.3-0.3-0.6-0.3-0.9-0.6
						c-0.6-0.3-1.2-0.3-1.8,0c-0.3,0-0.6,0.3-0.9,0.6C372.5,57.7,372.2,58.3,372.2,58.9z M373.4,57.1h2.4l0.3,0.3v0.9
						c0,0,0,0.3-0.3,0.3l-0.3,0.3h-0.3l0.9,1.5h-0.9l-0.9-1.5h-0.3v1.5h-0.3L373.4,57.1z M374.4,58.4h0.9v-0.6h-0.9V58.4z"/>
				</defs>
				<clipPath id="SVGID_4_">
					<use xlink:href="#SVGID_3_"  style="overflow:visible;"/>
				</clipPath>
				<g class="st1">
					<defs>
						<rect id="SVGID_5_" x="6.5" y="7.1" width="372" height="112"/>
					</defs>
					<clipPath id="SVGID_6_">
						<use xlink:href="#SVGID_5_"  style="overflow:visible;"/>
					</clipPath>
					<rect x="86.5" y="45.1" class="st2" width="297" height="66"/>
				</g>
			</g>
			<g class="st0">
				<defs>
					<path id="SVGID_7_" d="M51.5,79.7c10.9-5.5,15.8-18.5,10.3-29.5c-5.5-10.9-18.5-15.8-29.5-10.3C21.4,45.4,16.5,58.4,22,69.4
						c2.1,4.3,5.2,7.6,9.4,9.7V111l7,7c1.8,1.5,4.9,1.5,6.4-0.3l0.6-0.6l6.7-10.6l-6.1-5.2l6.1-5.2L46,90.9l5.8-5.8v-5.5H51.5z
						 M42.1,52.3c3.9,0,7.3,3.3,7.3,7.3c0,3.9-3.3,7.3-7.3,7.3c-3.9,0-7.3-3.3-7.3-7.3C34.8,55.7,37.8,52.3,42.1,52.3z M78.5,22.3
						L68.2,32.9c-14.6-13.4-37.1-13.4-51.3,0L6.5,22.6C15.9,12.5,29,7.1,42.7,7.1C56,7.1,69.1,12.5,78.5,22.3z"/>
				</defs>
				<clipPath id="SVGID_8_">
					<use xlink:href="#SVGID_7_"  style="overflow:visible;"/>
				</clipPath>
				<g class="st3">
					<defs>
						<rect id="SVGID_9_" x="6.5" y="7.1" width="372" height="112"/>
					</defs>
					<clipPath id="SVGID_10_">
						<use xlink:href="#SVGID_9_"  style="overflow:visible;"/>
					</clipPath>
					<rect x="1.5" y="2.1" class="st4" width="82" height="122"/>
				</g>
			</g>
		</g>
	</g>
	<rect x="6.5" y="7.1" class="st5" width="372" height="112"/>
</g>
</svg>
